<!DOCTYPE svg PUBLIC "-//W3C//DTD SVG 1.1//EN" "http://www.w3.org/Graphics/SVG/1.1/DTD/svg11.dtd">
<!-- Uploaded to: SVG Repo, www.svgrepo.com, Transformed by: SVG Repo Mixer Tools -->
<svg fill="#FF8C1E" height="171px" width="171px" version="1.1" id="Layer_1" xmlns="http://www.w3.org/2000/svg" xmlns:xlink="http://www.w3.org/1999/xlink" viewBox="0 0 512.00 512.00" xml:space="preserve" stroke="#FF8C1E" transform="matrix(1, 0, 0, 1, 0, 0)rotate(0)" stroke-width="0.00512">
<g id="SVGRepo_bgCarrier" stroke-width="0"/>
<g id="SVGRepo_tracerCarrier" stroke-linecap="round" stroke-linejoin="round" stroke="#CCCCCC" stroke-width="1.024"/>
<g id="SVGRepo_iconCarrier"> <g> <g> <g> <path d="M256,0C114.618,0,0,114.618,0,256s114.618,256,256,256s256-114.618,256-256S397.382,0,256,0z M256,469.333 c-117.818,0-213.333-95.515-213.333-213.333S138.182,42.667,256,42.667S469.333,138.182,469.333,256S373.818,469.333,256,469.333 z"/> <path d="M341.333,213.333c23.573,0,42.667-19.093,42.667-42.667C384,147.093,364.907,128,341.333,128 c-23.573,0-42.667,19.093-42.667,42.667C298.667,194.24,317.76,213.333,341.333,213.333z"/> <path d="M170.667,213.333c23.573,0,42.667-19.093,42.667-42.667c0-23.573-19.093-42.667-42.667-42.667 C147.093,128,128,147.093,128,170.667C128,194.24,147.093,213.333,170.667,213.333z"/> <path d="M384,277.333H128c-11.782,0-21.333,9.551-21.333,21.333C106.667,378.331,176.335,448,256,448 s149.333-69.669,149.333-149.333C405.333,286.885,395.782,277.333,384,277.333z M256,405.333 c-48.865,0-93.524-38.365-104.233-85.333h208.467C349.524,366.969,304.865,405.333,256,405.333z"/> </g> </g> </g> </g>
</svg>